<svg width="20" height="24" viewBox="0 0 20 24" fill="none" xmlns="http://www.w3.org/2000/svg">
<path d="M16.3419 12.7394C16.3652 10.9281 17.3148 9.25504 18.858 8.30629C17.88 6.90967 16.3008 6.05586 14.5966 6.00254C12.8037 5.81436 11.0656 7.07542 10.152 7.07542C9.22064 7.07542 7.81395 6.02123 6.2992 6.05242C4.30614 6.11679 2.49314 7.22248 1.52351 8.96492C-0.54136 12.54 0.998827 17.7942 2.97683 20.684C3.96645 22.099 5.12308 23.6797 6.63645 23.6237C8.11739 23.5622 8.67051 22.6793 10.4581 22.6793C12.2292 22.6793 12.7481 23.6237 14.2922 23.588C15.8813 23.5622 16.8826 22.1666 17.8375 20.7382C18.5486 19.7299 19.0957 18.6155 19.4587 17.4364C17.5713 16.6381 16.3441 14.7887 16.3419 12.7394Z" fill="white"/>
<path d="M13.4272 4.10194C14.2936 3.06181 14.7206 1.72481 14.6172 0.375C13.2935 0.514062 12.0706 1.14669 11.1925 2.14694C10.3254 3.13381 9.88608 4.42494 9.9714 5.73588C11.3129 5.74969 12.5866 5.14744 13.4272 4.10194Z" fill="white"/>
</svg>
