<svg width="19" height="22" viewBox="0 0 19 22" fill="none" xmlns="http://www.w3.org/2000/svg">
<path d="M1.36694 7.17334H1.31121C0.58887 7.17334 0 7.76588 0 8.48455V14.1906C0 14.9196 0.58887 15.5085 1.31121 15.5085H1.36768C2.08928 15.5085 2.67962 14.9167 2.67962 14.1906V8.48455C2.67742 7.76514 2.08855 7.17334 1.36694 7.17334Z" fill="white"/>
<path d="M3.30859 16.3982C3.30859 17.0626 3.84906 17.6016 4.5142 17.6016H5.80268V20.6853C5.80268 21.4084 6.39375 22.0002 7.11315 22.0002H7.16888C7.89269 22.0002 8.48303 21.4084 8.48303 20.6853V17.6016H10.2826V20.6853C10.2826 21.4084 10.8752 22.0002 11.596 22.0002H11.6518C12.3726 22.0002 12.963 21.4084 12.963 20.6853V17.6016H14.2522C14.9144 17.6016 15.4556 17.0634 15.4556 16.3982V7.3833H3.30859V16.3982Z" fill="white"/>
<path d="M12.4023 1.91658L13.4282 0.337708C13.495 0.236507 13.4656 0.101573 13.3644 0.0370392C13.2618 -0.0304279 13.1298 -0.00329438 13.0645 0.0986396L12.0048 1.73398C11.2084 1.41058 10.3189 1.22358 9.38166 1.22358C8.44299 1.22358 7.55565 1.41058 6.75778 1.73398L5.69957 0.0986396C5.63357 -0.00256104 5.49864 -0.0304279 5.39597 0.0370392C5.2955 0.101573 5.26617 0.23724 5.33144 0.337708L6.35738 1.91585C4.51083 2.82006 3.26562 4.52287 3.26562 6.48088C3.26562 6.60115 3.27296 6.72068 3.28322 6.83728H15.4794C15.4896 6.72068 15.4948 6.60115 15.4948 6.48088C15.4955 4.52287 14.2496 2.82006 12.4023 1.91658ZM6.55318 4.74433C6.22978 4.74433 5.96577 4.48033 5.96577 4.1606C5.96577 3.83133 6.22904 3.57173 6.55318 3.57173C6.87878 3.57173 7.14278 3.83133 7.14278 4.1606C7.14205 4.48033 6.87658 4.74433 6.55318 4.74433ZM12.2065 4.74433C11.8831 4.74433 11.6176 4.48033 11.6176 4.1606C11.6176 3.83133 11.8823 3.57173 12.2065 3.57173C12.5306 3.57173 12.7931 3.83133 12.7931 4.1606C12.7931 4.48033 12.5313 4.74433 12.2065 4.74433Z" fill="white"/>
<path d="M17.4521 7.17334H17.3986C16.677 7.17334 16.0859 7.76588 16.0859 8.48455V14.1906C16.0859 14.9196 16.6785 15.5085 17.3986 15.5085H17.4536C18.176 15.5085 18.7648 14.9167 18.7648 14.1906V8.48455C18.7648 7.76514 18.1752 7.17334 17.4521 7.17334Z" fill="white"/>
</svg>
